<?xml version="1.0" encoding="utf-8"?>
<!-- Generator: Adobe Illustrator 17.1.0, SVG Export Plug-In . SVG Version: 6.00 Build 0)  -->
<!DOCTYPE svg PUBLIC "-//W3C//DTD SVG 1.1//EN" "http://www.w3.org/Graphics/SVG/1.1/DTD/svg11.dtd">
<svg version="1.1" id="Layer_1" xmlns="http://www.w3.org/2000/svg" xmlns:xlink="http://www.w3.org/1999/xlink" x="0px" y="0px"
	 viewBox="0 0 60 60" enable-background="new 0 0 60 60" xml:space="preserve">
<path fill="#FFFFFF" d="M30.9,3.8l21.7,10.8c0.4,0.2,0.7,0.5,0.9,0.8h0l6,10.8c0.5,1,0.2,2.2-0.8,2.8c-0.1,0-0.1,0.1-0.2,0.1
	l-4.8,2.4v12.1c0,0.9-0.5,1.6-1.3,1.9L30.9,56.2c-0.6,0.3-1.3,0.3-1.8,0L7.4,45.4c-0.7-0.4-1.1-1.1-1.1-1.8h0V31.5L1.4,29
	c-1-0.5-1.4-1.7-0.9-2.7l0-0.1h0l6-10.8c0.2-0.4,0.6-0.7,1-0.9L29.1,3.8C29.7,3.5,30.4,3.5,30.9,3.8L30.9,3.8z M28.8,51.5L28.8,51.5
	V31.9l-3.3,6c-0.3,0.6-1.1,0.8-1.7,0.5l0,0l-13.4-6.7v10.6L28.8,51.5L28.8,51.5z M28.8,25.3L28.8,25.3V8.5l-16.8,8.4L28.8,25.3
	L28.8,25.3z M31.2,8.5L31.2,8.5v16.8L48,16.9L31.2,8.5L31.2,8.5z M31.2,32L31.2,32v19.5l18.4-9.2V31.7l-13.4,6.7l0,0
	c-0.6,0.3-1.3,0.1-1.7-0.5L31.2,32L31.2,32z M50.4,18.4L50.4,18.4l-18.8,9.4l4.4,7.9l18.8-9.4L50.4,18.4L50.4,18.4z M9.4,28.5
	L9.4,28.5l14.5,7.2l4.4-7.9L9.6,18.4l-4.4,7.9l3.9,2C9.2,28.4,9.3,28.4,9.4,28.5L9.4,28.5z"/>
</svg>
