<?xml version="1.0" encoding="utf-8"?>
<!-- Generator: Adobe Illustrator 17.1.0, SVG Export Plug-In . SVG Version: 6.00 Build 0)  -->
<!DOCTYPE svg PUBLIC "-//W3C//DTD SVG 1.1//EN" "http://www.w3.org/Graphics/SVG/1.1/DTD/svg11.dtd">
<svg version="1.1" id="Layer_1" xmlns="http://www.w3.org/2000/svg" xmlns:xlink="http://www.w3.org/1999/xlink" x="0px" y="0px"
	 viewBox="0 0 60 60" enable-background="new 0 0 60 60" xml:space="preserve">
<path fill="#FFFFFF" d="M30,4c7.2,0,13.7,2.9,18.4,7.6l0.1,0.1C53.1,16.5,56,22.9,56,30c0,2.8-0.5,5.5-1.3,8
	c-0.8,2.4-1.9,4.7-3.3,6.7V54c0,1.1-0.9,2-2,2h0H30c-7.2,0-13.7-2.9-18.3-7.6l0,0l0,0C6.9,43.7,4,37.2,4,30c0-7.2,2.9-13.6,7.6-18.3
	v0C16.3,7,22.8,4,30,4L30,4z M45.5,14.5L45.5,14.5C41.6,10.5,36,8,30,8c-6.1,0-11.5,2.5-15.5,6.4l0,0h0C10.5,18.4,8,23.9,8,30
	c0,6.1,2.5,11.6,6.4,15.5l0,0c4,4,9.5,6.4,15.5,6.4h17.4v-7.8l0,0c0-0.4,0.1-0.8,0.4-1.2c1.3-1.8,2.4-3.9,3.1-6.1
	c0.7-2.1,1.1-4.4,1.1-6.8C51.9,24,49.5,18.5,45.5,14.5L45.5,14.5L45.5,14.5z M18.7,37.9c-0.7,0-1.2-0.5-1.2-1.2
	c0-0.6,0.5-1.2,1.2-1.2h1.5h1.5c1.6,0,3.5-2.1,5.4-4.6l0.3,0.5c0.4,0.5,0.7,1,1.1,1.5c-2.2,2.7-4.4,5-6.9,5h-1.5H18.7L18.7,37.9z
	 M45,23.8L45,23.8l-1.9,1.9v0l-1.9,1.9c-0.3,0.3-0.7,0.3-1,0c-0.2-0.2-0.2-0.4-0.2-0.5v-2.7h-1.4H37c-1.6,0-3.5,2.1-5.4,4.6
	l-0.3-0.5c-0.4-0.5-0.7-1-1.1-1.5c2.2-2.7,4.4-5,6.9-5h1.5h1.4v-2.7c0-0.4,0.3-0.7,0.7-0.7c0.2,0,0.4,0.1,0.5,0.2l1.9,1.9l1.9,1.9
	C45.3,23.1,45.3,23.5,45,23.8L45,23.8L45,23.8z M43.5,23.3L43.5,23.3c-0.7-0.7-1.5-1.5-2.2-2.2v4.4C42.1,24.8,42.8,24,43.5,23.3
	L43.5,23.3z M45,37.2L45,37.2L45,37.2c0.3-0.3,0.3-0.7,0-1l-1.9-1.9l-1.9-1.9c-0.1-0.1-0.3-0.2-0.5-0.2c-0.4,0-0.7,0.3-0.7,0.7v2.7
	h-1.4H37c-2,0-4.3-3.1-6.7-6.2c-2.7-3.6-5.4-7.2-8.6-7.2h-1.5h-1.5c-0.7,0-1.2,0.5-1.2,1.2c0,0.6,0.5,1.2,1.2,1.2h1.5h1.5
	c2,0,4.3,3.1,6.7,6.2c2.7,3.6,5.4,7.2,8.6,7.2h1.5h1.4v2.7c0,0.2,0.1,0.4,0.2,0.6c0.3,0.3,0.7,0.3,1,0l1.9-1.9v0L45,37.2L45,37.2z
	 M43.5,36.7L43.5,36.7c-0.7,0.7-1.5,1.5-2.2,2.2v-4.4l0.7,0.7L43.5,36.7L43.5,36.7z"/>
</svg>
