<?xml version="1.0" encoding="utf-8"?>
<!-- Generator: Adobe Illustrator 17.1.0, SVG Export Plug-In . SVG Version: 6.00 Build 0)  -->
<!DOCTYPE svg PUBLIC "-//W3C//DTD SVG 1.1//EN" "http://www.w3.org/Graphics/SVG/1.1/DTD/svg11.dtd">
<svg version="1.1" id="Layer_1" xmlns="http://www.w3.org/2000/svg" xmlns:xlink="http://www.w3.org/1999/xlink" x="0px" y="0px"
	 viewBox="0 0 60 60" enable-background="new 0 0 60 60" xml:space="preserve">
<path fill="#81CCA9" d="M3.1,46.1c-4.6-7.7-2.7-19.2,2.1-26.4c0.7-1,2.1-1.3,3.1-0.6c0.5,0.3,0.8,0.8,1,1.4l0,0
	c0.1,0.4,0.2,0.8,0.3,1.2c0.5-1.6,1.2-3.2,2-4.7c2.6-4.5,6.8-8.3,11.3-10c1.1-0.6,2.4,0,2.9,1.1c0.2,0.6,0.2,1.2,0,1.7
	c-0.4,1-0.8,2-1.2,3c3.4-3,7.5-5.6,11.9-7.3c8.9-3.4,19.1-2.4,22.9,7.8c0.4,1.2-0.1,2.5-1.3,2.9l-0.2,0.1c-7.6,2-10.4,6.9-13.1,11.6
	c-3.7,6.5-7.2,12.6-19.6,12.4c0.8,0.4,1.9,0.8,3.3,1.2c1.2,0.4,1.9,1.6,1.5,2.8c-0.2,0.6-0.6,1.1-1.1,1.3c-5.7,3.2-15.7,5.5-22.1,3
	c-0.9,1.3-2.3,4.1-1.4,8.5l0,0h6.2c0.8,0,1.4,0.6,1.4,1.4c0,0.8-0.6,1.4-1.4,1.4H4.9H3.6H3.4C2.3,60,1.2,59.3,1,58.1
	C-0.3,52.3,1.7,48.2,3.1,46.1L3.1,46.1z M19.7,60L19.7,60h38.4c0.7,0,1.4-0.6,1.4-1.4c0-0.7-0.6-1.4-1.4-1.4H19.7
	c-0.7,0-1.4,0.6-1.4,1.4C18.4,59.4,19,60,19.7,60L19.7,60z M7,43.7L7,43.7c2.9,3.2,11.6,1.1,15.1,0c-1.9-1.2-3-2.5-3.5-3.6
	c-0.8-1.6-1.3-5,1.9-4.6c13.8,1.8,16.9-3.8,20.4-9.8c2.8-4.9,5.8-10.1,13.3-12.9C47,1,26.4,14.3,22.8,22.4c-0.3,0.9-1.1,1.6-2.1,1.6
	c-1.3,0-2.3-1-2.3-2.3c0,0,0.1-3.3,1.2-7.5c-1.5,1.4-2.9,3.1-3.9,4.9c-1.9,3.3-2.7,7-1.8,10.4l0,0c0.3,0.9-0.1,1.9-0.9,2.5
	c-1,0.7-2.4,0.4-3.1-0.6c-1-1.5-2.1-3-3-4.6C4.8,31.9,4.1,38.8,7,43.7L7,43.7z"/>
</svg>
