<?xml version="1.0" encoding="utf-8"?>
<!-- Generator: Adobe Illustrator 17.1.0, SVG Export Plug-In . SVG Version: 6.00 Build 0)  -->
<!DOCTYPE svg PUBLIC "-//W3C//DTD SVG 1.1//EN" "http://www.w3.org/Graphics/SVG/1.1/DTD/svg11.dtd">
<svg version="1.1" id="Layer_1" xmlns="http://www.w3.org/2000/svg" xmlns:xlink="http://www.w3.org/1999/xlink" x="0px" y="0px"
	 viewBox="0 0 60 60" enable-background="new 0 0 60 60" xml:space="preserve">
<g>
	<path fill="#FFFFFF" d="M46.9,12.6c3.2,1.9,5.7,4.8,7.2,8.2c0.7,1.8,1.5,3.6,2,5.7c0.6,2.1,1,4.1,1.5,6.3c0.3,2.1,0.6,4.1,0.7,6.2
		c0.2,2.1,0.2,4.1,0.2,6.1l0,0c0,1.6-0.4,3.1-1,4.4c-2.2,4.5-7.2,6.1-11.6,3.8l0,0l0,0c-1.3-0.7-2.3-1.6-3.1-2.7
		c-0.7-0.9-1.3-2-1.9-3.1c-1.2-2.3-2.6-4-4.4-5.2l-0.1-0.1c-3.5-2.3-9.2-2.3-12.7,0.1l0,0c-1.7,1.1-3.1,2.9-4.4,5.2
		c-0.5,1-1.1,2.1-1.9,3.1c-0.8,1-1.9,2-3.1,2.7l-0.1,0.1C8,56.6,1.9,51.9,1.7,45.2l0,0c0-2,0-4,0.2-6.1c0.2-2.1,0.4-4.1,0.7-6.2
		c0.4-2.2,0.8-4.3,1.5-6.3c0.5-2,1.2-3.8,2-5.7c1.5-3.4,3.9-6.3,7.2-8.2c4.4-2.5,8.4-2.2,12.7-1.9c1.3,0.1,2.7,0.2,4.1,0.2
		s2.8-0.1,4.1-0.2C38.4,10.4,42.4,10.1,46.9,12.6L46.9,12.6z M17.8,20.6L17.8,20.6v4.7h-4.7c-0.7,0-1.3,0.6-1.3,1.3
		c0,0.7,0.6,1.3,1.3,1.3h4.7v4.7c0,0.7,0.6,1.3,1.3,1.3c0.7,0,1.3-0.6,1.3-1.3v-4.7h4.7c0.7,0,1.3-0.6,1.3-1.3s-0.6-1.3-1.3-1.3
		h-4.7v-4.7c0-0.7-0.6-1.3-1.3-1.3C18.4,19.3,17.8,19.8,17.8,20.6L17.8,20.6z M41.3,20.6L41.3,20.6c-1.2,0-2.2,0.9-2.2,2.2
		c0,1.2,0.9,2.2,2.2,2.2c1.2,0,2.2-0.9,2.2-2.2C43.5,21.6,42.5,20.6,41.3,20.6L41.3,20.6z M39.6,26.6L39.6,26.6
		c0-1.2-0.9-2.2-2.2-2.2c-1.2,0-2.2,0.9-2.2,2.2c0,1.2,0.9,2.2,2.2,2.2C38.7,28.8,39.6,27.8,39.6,26.6L39.6,26.6z M41.3,28.2
		L41.3,28.2c-1.2,0-2.2,0.9-2.2,2.2c0,1.2,0.9,2.2,2.2,2.2c1.2,0,2.2-0.9,2.2-2.2C43.5,29.3,42.5,28.2,41.3,28.2L41.3,28.2z
		 M47.3,26.6L47.3,26.6c0-1.2-0.9-2.2-2.2-2.2c-1.2,0-2.2,0.9-2.2,2.2c0,1.2,0.9,2.2,2.2,2.2S47.3,27.8,47.3,26.6L47.3,26.6z
		 M44.7,16.4L44.7,16.4c-3.2-1.9-6.6-1.7-10.2-1.3c-1.5,0.1-2.9,0.2-4.5,0.2c-1.6,0-3-0.1-4.5-0.2c-3.5-0.3-6.9-0.6-10.2,1.3
		c-2.4,1.5-4.3,3.6-5.4,6.2c-0.7,1.6-1.2,3.3-1.8,5.1c-0.5,1.9-1,3.8-1.3,5.8c-0.3,2-0.6,3.8-0.7,5.8C6.1,41.3,6,43.2,6,45l0,0
		c0,0.9,0.2,1.8,0.6,2.6c1.6,3.2,5.3,3,7.4,0.4c0.5-0.7,1-1.6,1.6-2.4c1.6-2.9,3.4-5.2,5.7-6.7l0,0c4.9-3.3,12.7-3.3,17.5-0.1
		l0.2,0.1c2.3,1.6,4.1,3.8,5.7,6.7c0.5,0.8,0.9,1.8,1.6,2.4c2.1,2.7,5.8,2.9,7.4-0.4c0.3-0.7,0.6-1.7,0.6-2.6c0-1.8,0-3.6-0.2-5.7
		c-0.1-2-0.4-3.8-0.7-5.8c-0.3-2-0.8-3.9-1.3-5.8c-0.5-1.8-1.1-3.5-1.8-5.1C49,20.1,47.1,17.8,44.7,16.4L44.7,16.4z"/>
</g>
</svg>
