<?xml version="1.0" encoding="utf-8"?>
<!-- Generator: Adobe Illustrator 17.1.0, SVG Export Plug-In . SVG Version: 6.00 Build 0)  -->
<!DOCTYPE svg PUBLIC "-//W3C//DTD SVG 1.1//EN" "http://www.w3.org/Graphics/SVG/1.1/DTD/svg11.dtd">
<svg version="1.1" id="Layer_1" xmlns="http://www.w3.org/2000/svg" xmlns:xlink="http://www.w3.org/1999/xlink" x="0px" y="0px"
	 viewBox="309.5 0 661 661" enable-background="new 309.5 0 661 661" xml:space="preserve">
<g id="twitter_2_">
	<path fill="#FFFFFF" d="M640,0.2c-181.7,0-330.3,148.6-330.3,330.3S458.3,660.8,640,660.8s330.3-148.6,330.3-330.3
		C970.3,146.5,821.7,0.2,640,0.2z M771.4,279.1c0,2.3,0,5.7,0,8c0,89.1-68.6,194.3-194.3,194.3c-38.9,0-74.3-10.3-102.9-30.9
		c5.7,0,10.3,0,16,0c30.9,0,61.7-10.3,84.6-28.6c-28.6,0-56-20.6-64-46.9c4.6,0,8,2.3,12.6,2.3c5.7,0,12.6,0,18.3-2.3
		c-30.9-5.7-53.7-33.1-53.7-66.3l0,0c8,4.6,20.6,8,30.9,8c-18.3-12.6-30.9-33.1-30.9-56c0-12.6,4.6-25.1,8-35.4
		c33.1,41.1,82.3,68.6,140.6,69.7c-2.3-4.6-2.3-10.3-2.3-14.9c0-36.6,30.9-68.6,68.6-68.6c18.3,0,36.6,8,49.1,20.6
		c16-2.3,30.9-8,43.4-16c-4.6,16-16,28.6-28.6,36.6c14.9-2.3,26.3-5.7,38.9-10.3C796.6,256.2,784,268.8,771.4,279.1z"/>
</g>
</svg>
