<?xml version="1.0" encoding="utf-8"?>
<!-- Generator: Adobe Illustrator 17.1.0, SVG Export Plug-In . SVG Version: 6.00 Build 0)  -->
<!DOCTYPE svg PUBLIC "-//W3C//DTD SVG 1.1//EN" "http://www.w3.org/Graphics/SVG/1.1/DTD/svg11.dtd">
<svg version="1.1" id="Layer_1" xmlns="http://www.w3.org/2000/svg" xmlns:xlink="http://www.w3.org/1999/xlink" x="0px" y="0px"
	 viewBox="309.5 0 661 661" enable-background="new 309.5 0 661 661" xml:space="preserve">
<path fill="#FFFFFF" d="M640,0.2c-181.7,0-330.3,148.6-330.3,330.3S458.3,660.8,640,660.8s330.3-148.6,330.3-330.3
	S821.7,0.2,640,0.2z M793.1,447.1l-49.1,1.1c0,0-10.3,2.3-24-6.9c-18.3-12.6-35.4-44.6-49.1-41.1c-13.7,4.6-12.6,33.1-12.6,33.1
	s0,4.6-3.4,8c-2.3,3.4-9.1,3.4-9.1,3.4H624c0,0-48,4.6-90.3-40c-45.7-48-86.9-142.9-86.9-142.9s-2.3-5.7,0-9.1
	c3.4-3.4,10.3-3.4,10.3-3.4h52.6c0,0,4.6,1.1,8,3.4c3.4,2.3,4.6,5.7,4.6,5.7s8,21.7,19.4,40c21.7,37.7,32,45.7,38.9,42.3
	c10.3-5.7,8-52.6,8-52.6s0-17.1-5.7-25.1c-4.6-5.7-12.6-8-16-8c-3.4,0,2.3-6.9,8-10.3c9.1-4.6,26.3-4.6,45.7-4.6
	c14.9,0,19.4,1.1,25.1,2.3c18.3,4.6,11.4,20.6,11.4,61.7c0,12.6-2.3,30.9,6.9,36.6c3.4,2.3,13.7,0,37.7-41.1
	c11.4-19.4,20.6-42.3,20.6-42.3s2.3-4.6,4.6-5.7c3.4-2.3,6.9-1.1,6.9-1.1h54.9c0,0,16-2.3,19.4,5.7c2.3,8-5.7,26.3-28.6,56
	c-36.6,49.1-41.1,44.6-10.3,73.1c28.6,27.4,35.4,40,36.6,42.3C818.3,445.9,793.1,447.1,793.1,447.1z"/>
</svg>
