<?xml version="1.0" encoding="utf-8"?>
<!-- Generator: Adobe Illustrator 17.1.0, SVG Export Plug-In . SVG Version: 6.00 Build 0)  -->
<!DOCTYPE svg PUBLIC "-//W3C//DTD SVG 1.1//EN" "http://www.w3.org/Graphics/SVG/1.1/DTD/svg11.dtd">
<svg version="1.1" id="Layer_1" xmlns="http://www.w3.org/2000/svg" xmlns:xlink="http://www.w3.org/1999/xlink" x="0px" y="0px"
	 viewBox="309.5 0 661 661" enable-background="new 309.5 0 661 661" xml:space="preserve">
<g id="facebook_2_">
	<path fill="#FFFFFF" d="M640,0.2c-181.7,0-330.3,148.6-330.3,330.3S458.3,660.8,640,660.8s330.3-148.6,330.3-330.3
		C970.3,146.5,821.7,0.2,640,0.2z M712,274.5l-3.4,50.3h-51.4v171.4h-64V324.8h-35.4v-49.1h35.4v-33.1c0-14.9,0-36.6,10.3-51.4
		c10.3-14.9,26.3-25.1,53.7-25.1c43.4,0,61.7,5.7,61.7,5.7l-8,51.4c0,0-14.9-4.6-26.3-4.6c-11.4,0-25.1,4.6-25.1,18.3v38.9
		L712,274.5L712,274.5z"/>
</g>
</svg>
