<?xml version="1.0" encoding="utf-8"?>
<!-- Generator: Adobe Illustrator 17.1.0, SVG Export Plug-In . SVG Version: 6.00 Build 0)  -->
<!DOCTYPE svg PUBLIC "-//W3C//DTD SVG 1.1//EN" "http://www.w3.org/Graphics/SVG/1.1/DTD/svg11.dtd">
<svg version="1.1" id="Layer_1" xmlns="http://www.w3.org/2000/svg" xmlns:xlink="http://www.w3.org/1999/xlink" x="0px" y="0px"
	 viewBox="0 0 60 60" enable-background="new 0 0 60 60" xml:space="preserve">
<path fill="#81CCA9" d="M2.4,59.5c-1.3,0-2.3-1-2.3-2.3s1-2.3,2.3-2.3h3.5c0.8-2.2,2.3-4.1,4.2-5.5c1.3-1,2.8-1.7,4.3-2.2V4.8
	c0-1.3,1-2.3,2.3-2.3c1,0,1.9,0.7,2.2,1.6l21,7.4c0.7,0.3,1.1,1,0.9,1.8c-0.1,0.4-0.5,0.7-0.9,0.9L19,21.5V47c1.5,0.2,2.8,0.6,4,1.2
	c0.5,0.2,0.9,0.5,1.3,0.8c1.1-1.9,2.7-3.6,4.5-4.9c2.6-1.8,5.8-2.9,9.5-2.9c4,0,8,1.7,11,4.5l0.1,0.1c2.6,2.4,4.5,5.7,5,9.3h3.3
	c1.3,0,2.3,1,2.3,2.3s-1,2.3-2.3,2.3H2.4V59.5z M18.9,7.1L18.9,7.1v11.4l16.2-5.7L18.9,7.1L18.9,7.1z M11,54.9L11,54.9h13.1
	c-0.4-0.1-0.7-0.4-0.9-0.7c-0.7-0.9-1.5-1.6-2.4-2.1s-2-0.7-3.5-0.7s-3.1,0.6-4.5,1.7C12.1,53.6,11.5,54.2,11,54.9L11,54.9z
	 M25.7,54.9L25.7,54.9h23.9c-0.5-2.3-1.8-4.3-3.5-5.9L46,48.9c-2.2-2-5-3.2-7.9-3.2c-2.7,0-5,0.8-6.9,2c-1.9,1.4-3.4,3.4-4.2,5.8
	l0,0c-0.1,0.4-0.4,0.7-0.7,1C26.2,54.7,26,54.8,25.7,54.9L25.7,54.9z"/>
</svg>
