<?xml version="1.0" encoding="utf-8"?>
<!-- Generator: Adobe Illustrator 17.1.0, SVG Export Plug-In . SVG Version: 6.00 Build 0)  -->
<!DOCTYPE svg PUBLIC "-//W3C//DTD SVG 1.1//EN" "http://www.w3.org/Graphics/SVG/1.1/DTD/svg11.dtd">
<svg version="1.1" id="Layer_1" xmlns="http://www.w3.org/2000/svg" xmlns:xlink="http://www.w3.org/1999/xlink" x="0px" y="0px"
	 viewBox="309.5 0 661 661" enable-background="new 309.5 0 661 661" xml:space="preserve">
<g id="google-plus">
	<g>
		<path fill="#FFFFFF" d="M635.4,241.4c-4.6-35.4-28.6-61.7-56-64c-26.3-2.3-43.4,25.1-38.9,59.4c4.6,35.4,28.6,64,56,64
			C621.7,304.2,640,276.8,635.4,241.4z"/>
		<path fill="#FFFFFF" d="M640,0.2c-181.7,0-330.3,148.6-330.3,330.3S458.3,660.8,640,660.8s330.3-148.6,330.3-330.3
			S821.7,0.2,640,0.2z M584,492.8c-58.3,0-105.1-22.9-105.1-59.4s43.4-74.3,100.6-74.3c5.7,0,12.6,0,18.3,0c-8-8-14.9-16-14.9-28.6
			c0-5.7,2.3-12.6,5.7-18.3c-2.3,0-5.7,0-10.3,0c-46.9,0-78.9-33.1-78.9-74.3c0-38.9,43.4-74.3,89.1-74.3h102.9l-22.9,16h-33.1
			c20.6,8,33.1,33.1,33.1,59.4c0,20.6-12.6,38.9-28.6,53.7c-16,12.6-20.6,18.3-20.6,28.6s18.3,25.1,26.3,30.9
			c26.3,18.3,35.4,36.6,35.4,66.3C685.7,458.5,650.3,492.8,584,492.8z M798.9,338.5H760v38.9h-33.1v-38.9H688v-33.1h38.9v-38.9H760
			v38.9h38.9V338.5z"/>
		<path fill="#FFFFFF" d="M617.1,373.9c-8-2.3-16-4.6-25.1-4.6c-38.9,0-74.3,25.1-74.3,53.7c0,28.6,28.6,53.7,68.6,53.7
			c56,0,74.3-22.9,74.3-53.7c0-4.6,0-5.7-2.3-10.3C654.9,396.8,637.7,388.8,617.1,373.9z"/>
	</g>
</g>
</svg>
