<?xml version="1.0" encoding="utf-8"?>
<!-- Generator: Adobe Illustrator 17.1.0, SVG Export Plug-In . SVG Version: 6.00 Build 0)  -->
<!DOCTYPE svg PUBLIC "-//W3C//DTD SVG 1.1//EN" "http://www.w3.org/Graphics/SVG/1.1/DTD/svg11.dtd">
<svg version="1.1" id="Layer_1" xmlns="http://www.w3.org/2000/svg" xmlns:xlink="http://www.w3.org/1999/xlink" x="0px" y="0px"
	 viewBox="0 0 193 138" enable-background="new 0 0 193 138" xml:space="preserve">
<g>
	<path fill="#FFFFFF" d="M27.1,25.7c1.4,0.3,2,1,2,2.1c0,2.7-0.1,11.5-0.3,26.4c0,3.9-0.4,5.8-1.1,5.7c-0.3,0.5-0.9,0.7-1.6,0.6
		c-4.4-0.7-8.7-1.4-13-2.1c-2.4-0.4-3.6-1.4-3.6-2.9c0.1-13.9,0.1-21.8,0.1-23.7c0-3.7,0.4-5.6,1.2-5.5
		C10.8,25.8,16.2,25.7,27.1,25.7z M26.4,10.8c1.2,0,2,0.8,2.3,2.5c0,2.5,0,5,0,7.5c0,1.3-0.9,2-2.6,2.2c-0.5,0-5.2-0.1-14-0.5
		c-1.1-0.1-1.8-0.8-2-2.2c0-2.7,0-5.5,0-8.2c0-0.9,3.2-1.4,9.7-1.4C21.9,10.8,24.1,10.8,26.4,10.8z"/>
	<path fill="#FFFFFF" d="M70.4,10.4c1.7,0,2.6,1.1,2.8,3.3c0,10.1-0.1,20.2-0.1,30.3c0,4.5-0.1,10.7-0.2,18.5c0,1.5-1.2,2.2-3.6,2.1
		c-11.9-0.7-23.7-1.8-35.5-3.4c-1.8-0.6-2.7-1.5-2.7-2.6c0.1-19.9,0.4-29.8,1-29.8c0.8-0.5,1.5-0.8,2.1-0.9c0.1,0,0.3,0,0.4,0
		c3.1,0.1,11.5,0.5,19.4,0.8c1.1,0,2-0.8,2.1-2c0,0,0,0,0,0c0-0.6,0.1-4.2,0.2-10.8c0.1-1.4,0.1-2.3,0.2-2.8c0,0-0.1,0-0.1,0
		c0-1.7,1.6-2.6,4.8-2.8c0.1,0,0.1,0,0.1,0C62,10.3,65,10.3,70.4,10.4z M47.6,42.5c-0.3,0.3-0.4,0.8-0.4,1.3
		c0.1,1.2,0.1,2.2,0.1,2.9c0,1.3,0,2.7,0,4c0,1,0.5,1.7,1.5,2.1c1.8,0.1,3.3,0.1,4.6,0.2c0.6,0,1.2,0.1,1.8,0.1
		c1.2,0.1,1.9-0.4,2.1-1.6c0-2.5,0-5,0-7.4c0-0.9-0.6-1.8-1.4-2.1c-0.3-0.1-0.7-0.2-1.1-0.2c-1.5-0.1-3-0.2-4.5-0.2
		C49,41.5,48.1,41.8,47.6,42.5z"/>
	<path fill="#FFFFFF" d="M93.8,27.3c1.4,0.3,2,1,2,2.2c0,3-0.1,12.7-0.1,28.9c0,4.3-0.4,6.4-1.1,6.4c-0.3,0.6-0.9,0.9-1.6,0.9
		c-4.4,0-8.9-0.1-13.3-0.3c-2.5-0.1-3.7-1-3.7-2.7C76,46.4,76.1,37.2,76.1,35c0-4.3,0.4-6.5,1.2-6.5C77.4,28.2,82.8,27.9,93.8,27.3z
		 M93,10.8c1.2,0,2,0.9,2.3,2.8c0,2.8,0,5.5,0,8.3c0,1.4-0.9,2.2-2.6,2.5c-0.5,0-5.2,0-14.1,0.1c-1.1,0-1.8-0.8-2-2.5
		c0-3.2,0-6.3,0-9.5c0-1.1,3.2-1.6,9.7-1.6C88.5,10.8,90.7,10.8,93,10.8z"/>
	<path fill="#FFFFFF" d="M102.6,11c0.1,0,0.2,0,0.4,0.1c8.5-0.1,15.1-0.1,19.6-0.2c3.2,0,6.4,0,9.5,0c2.5,0,3.7,1.1,3.7,3.3
		c0.1,15.2,0.2,30.4,0.2,45.6c0,2.1-1.3,3.6-3.9,4.3c-0.1,0-0.3,0.1-0.4,0.1c-3.1,0.2-13.2,1.1-30.5,1.3c-1.6,0-2.5-1.3-2.7-3.9
		c0-10.1,0-20.2,0-30.3c0-4,0-9.6,0.1-16.6C98.7,13.1,100,11.8,102.6,11z M112.7,27.3c0.2,9.8,0.3,17.6,0.3,23.2
		c0.4,1.6,1.3,2.4,2.6,2.4c0.9,0,1.7-0.1,2.6-0.1c1.6-0.3,2.5-1.2,2.5-2.7c0-7.7-0.1-15.4-0.1-23.1c0-1.3-0.9-2-2.6-2
		c-0.8,0-1.5,0-2.3,0c-1.9,0.2-2.9,0.9-2.9,2.2C112.8,27.3,112.8,27.3,112.7,27.3z"/>
	<path fill="#FFFFFF" d="M183.2,10.4c1.1,0,1.6,1,1.6,3c0.5,14.1,1,28.1,1.5,42c0,1.2-0.8,2-2.5,2.3c-3.9,0.7-7.9,1.4-11.9,2
		c-1.5,0.2-2.3-0.3-2.3-1.6c0-7.5-0.1-15.1-0.1-22.6c-0.1,0-0.2,0-0.3,0c-2.1,4.6-3.5,7.7-4.4,9.4c-0.3,0.6-0.9,1-1.5,1.2
		c-0.2,0.1-0.5,0.1-0.9,0.2c-0.7,0.1-1.4-0.1-1.9-0.7c-0.8-1.1-2.3-3.2-4.4-6.4c-0.8-1.4-1.3-2.1-1.6-2.2c0,0.1,0,0.2,0,0.3
		c0.3,7.7,0.5,15.4,0.8,23c0,1.2-1.3,1.9-4.1,2.2c-4,0.5-8.2,1-10.2,1.2c-0.7,0.1-1.3-0.4-1.8-1.4c-0.1-0.3-0.2-0.6-0.2-0.9
		c-0.1-7.2-0.2-12.7-0.2-16.4c-0.1-10.4-0.1-20.8-0.2-31.1c0-1.7,2-2.5,6.1-2.5c1.2,0,4.9-0.1,8.6-0.4c1.9,0,3.4,2,4.5,5.8
		c0,0.1,0.1,0.2,0.1,0.3c0.3,0.6,0.5,1.2,0.7,1.7c0.8,1.8,3.3,1.5,3.8-0.3c0.5-2,1.1-4.1,1.6-6.1c0.4-0.8,2.4-1.2,6.1-1.2
		C174.6,10.7,178.9,10.5,183.2,10.4z"/>
	<path fill="#FFFFFF" d="M12.5,60.2c4.6,0.9,9.2,1.7,13.8,2.4c1.8,0.3,2.7,1.2,2.7,2.8c0,2.9-0.3,13.2-0.8,31c0,0.7-0.1,1.3-0.1,1.8
		c-0.1,1.2,1,2.5,2.3,2.6c5.6,0.7,11.3,1.1,17,1.4c0.2,0,0.5,0.1,0.7,0.1c1.7,0.7,2.6,1.5,2.6,2.4c0.1,3.4,0.3,6.9,0.4,10.3
		c0,5.4-0.4,8-1,7.8c-0.5,0.8-1.5,1.1-2.9,0.8c-21.3-4.7-32.9-9.8-35.8-10.8c-1.2-0.5-1.9-1.7-2.3-3.7c0-0.1,0-0.3,0-0.4
		c0-3.5,0.1-16.9,0.2-40.2c0.1-4.4,0.2-7,0.2-7.7C9.4,60.2,10.4,60,12.5,60.2z"/>
	<path fill="#FFFFFF" d="M59.7,66c10.6,0.9,21.3,1.4,32,1.5c1.9,0,3.3,1.2,4.2,3.5c0.1,0.3,0.2,0.7,0.3,1
		c0.2,11.8,0.3,25.2,0.3,40.3c0,2.6,0,5.2,0,7.9c0,1.5,0.1,3.5,0.2,5.9c0,1.5-0.9,2.5-2.8,3c-0.2,0.1-0.4,0.1-0.6,0.1
		c-23.4-0.9-35.7-4-37.1-4c-1.8-0.6-2.6-1.7-2.6-3.2c0-5.1,0.1-10.2,0.1-15.3c0-2.6,0.1-6.2,0.2-10.9c0-1.8,1.5-2.5,4.3-2.1
		c3.7,0.5,10.1,1.1,19.1,1.5c1.1,0,2-0.9,2-2.1c-0.1-4.4-0.1-7.8-0.1-10.4c0-0.2,0-0.3,0-0.5c-0.3-1.4-1-2.2-2.2-2.2
		c-0.8,0-1.7-0.1-2.5-0.1c-1.4,0.4-2.2,1.1-2.2,2.1c0,2.3,0,4.6,0,7c0,1.2-0.6,2-1.8,2.4c-0.3,0.1-0.6,0.1-0.9,0.1
		c-1.6-0.2-6-0.5-13.2-1.3c-1.8-0.6-2.8-1.5-2.8-2.6c0-4,0-8,0.1-11.9c0-1.7,0.1-3.8,0.2-6.3c0-0.4,0.1-0.8,0.3-1.1
		C55.5,66.6,57.3,65.8,59.7,66z M67,108c0,1.7,0,3.4,0,5.2c0,0.6,0.3,1.1,0.9,1.7c2.9,0.4,5.3,0.7,7.3,0.9c1,0.1,2.1,0.2,3.1,0.3
		c1.4-0.1,2-0.7,2-1.8c-0.1-3.1-0.1-5.1-0.1-6c0-0.6-0.4-1.1-1.1-1.5c-7.9-0.5-11.8-0.7-11.8,0.1C67.1,107.1,67,107.5,67,108z"/>
	<path fill="#FFFFFF" d="M111.9,67.4c1.8-0.1,2.6,1.2,2.6,3.7c0,0.9,0,1.7,0,2.6c0.1,0,0.1,0,0.2,0c2.5-4,7.2-6.1,13.9-6.6
		c0.2,0,0.4,0,0.6,0c6.7-0.4,10.8,1.5,12.4,6.1c0.2,0.4,0.3,1,0.3,1.7c0.1,15.8,0.2,31.5,0.3,47.3c0,1.8-0.7,2.8-2.1,3.1
		c-3.3,0.6-6.6,1.1-9.9,1.6c-1.7,0.2-2.7-0.9-3-3.3c-0.8-6.5-1.1-16.3-1.1-29.1c0-2-0.9-3-2.6-3.2c-1.6,0.1-3.2,0.2-4.8,0.3
		c-0.6,0-1.1,0.4-1.6,1.2c-0.2,0.4-0.4,0.8-0.4,1.3c0.1,4.8,0.2,10,0.2,15.7c0,5.1,0,10.1,0,15.2c0,2.6-1.7,4.1-5.1,4.3
		c-3.4,0.2-6.9,0.3-10.3,0.4c-1.8-0.3-2.7-1.3-2.7-2.8c0.1-27.5,0.1-43.7,0.1-48.4c0-0.5,0.1-3,0.2-7.4c0-2.1,3.2-3.1,9.5-3.2
		c0.1,0,0.3-0.1,0.4-0.1C109.3,67.6,110.2,67.5,111.9,67.4z"/>
	<path fill="#FFFFFF" d="M183.4,59.4c1.9-0.3,2.9,0.5,3.2,2.6c0,9.8,0,19.7,0,29.5c0,4.4,0,10.4-0.1,18.1c0,1.5-1.3,2.8-3.8,3.8
		c-11.5,4.5-23.2,8-35.1,10.6c-2.1,0.1-3.1-0.6-3.1-2c-0.1-23.5,0.1-35.2,0.7-35.3c0.9-0.8,1.7-1.3,2.4-1.6c0.1,0,0.3-0.1,0.4-0.1
		c3.3-0.5,9.3-1.3,17.8-3c1.1-0.2,2-1.2,2-2.3c0-0.1,0-0.2,0-0.3c0-0.6,0-4.5,0.1-11.5c0.1-1.5,0.1-2.5,0.1-3c-0.1,0-0.1,0-0.2,0
		c0-1.8,1.8-3,5.4-3.8c0.1,0,0.1,0,0.1,0C174.1,61,177.4,60.5,183.4,59.4z M158.3,99c-0.2,0.4-0.3,0.9-0.3,1.3
		c0.1,1.4,0.1,2.5,0.1,3.2c0,1.5,0,3,0,4.4c0,1.1,0.6,1.7,1.7,1.7c2-0.6,3.7-1.1,5.2-1.5c0.7-0.2,1.3-0.4,2-0.5
		c1.3-0.4,2.1-1.2,2.3-2.4c0-2.7,0-5.4,0-8c0-0.7-0.4-1.3-1-1.5c-0.5-0.1-1.1-0.1-1.9,0.1c-1.7,0.4-3.3,0.8-5,1.2
		C159.9,97.3,158.9,98,158.3,99z"/>
</g>
</svg>
