<?xml version="1.0" encoding="utf-8"?>
<!-- Generator: Adobe Illustrator 17.1.0, SVG Export Plug-In . SVG Version: 6.00 Build 0)  -->
<!DOCTYPE svg PUBLIC "-//W3C//DTD SVG 1.1//EN" "http://www.w3.org/Graphics/SVG/1.1/DTD/svg11.dtd">
<svg version="1.1" id="Layer_1" xmlns="http://www.w3.org/2000/svg" xmlns:xlink="http://www.w3.org/1999/xlink" x="0px" y="0px"
	 viewBox="0 0 37 51" enable-background="new 0 0 37 51" xml:space="preserve">
<g>
	<path fill="#FFFFFF" d="M25.5,51.1c-14.2,0-25.6-11.3-25.6-25.6S11.5,0,25.8,0H37v51L25.5,51.1z"/>
	<linearGradient id="SVGID_1_" gradientUnits="userSpaceOnUse" x1="16.3" y1="24.5" x2="24.8" y2="24.5">
		<stop  offset="0" style="stop-color:#4B71B8"/>
		<stop  offset="1" style="stop-color:#293F7E"/>
	</linearGradient>
	<path fill="url(#SVGID_1_)" d="M24.8,15.5c0,0-1.7,0-2.9,0c-1.7,0-3.6,0.7-3.6,3.2c0,0.9,0,1.7,0,2.6h-2v3.1h2v9.1H22v-9.1h2.5
		l0.2-3.1h-2.8c0,0,0-1.4,0-1.8c0-1,1-0.9,1.1-0.9c0.5,0,1.4,0,1.7,0L24.8,15.5L24.8,15.5z"/>
</g>
</svg>
