<?xml version="1.0" encoding="utf-8"?>
<!-- Generator: Adobe Illustrator 17.1.0, SVG Export Plug-In . SVG Version: 6.00 Build 0)  -->
<!DOCTYPE svg PUBLIC "-//W3C//DTD SVG 1.1//EN" "http://www.w3.org/Graphics/SVG/1.1/DTD/svg11.dtd">
<svg version="1.1" id="Layer_1" xmlns="http://www.w3.org/2000/svg" xmlns:xlink="http://www.w3.org/1999/xlink" x="0px" y="0px"
	 viewBox="0 0 37 51" enable-background="new 0 0 37 51" xml:space="preserve">
<g>
	<path fill="#FFFFFF" d="M25.5,51.1c-14.2,0-25.6-11.3-25.6-25.6S11.5,0,25.8,0H37v51L25.5,51.1z"/>
	<g>
		<linearGradient id="SVGID_1_" gradientUnits="userSpaceOnUse" x1="19.3295" y1="17.5081" x2="18.7462" y2="35.3414">
			<stop  offset="0" style="stop-color:#E16D35"/>
			<stop  offset="1" style="stop-color:#C93D1D"/>
		</linearGradient>
		<path fill="url(#SVGID_1_)" d="M22.8,28.3C22.4,28.1,22,28,21.6,28c-0.3,0-0.7,0-1.4-0.1c-0.6,0-1.2-0.1-1.5-0.1s-0.7,0-1,0
			s-0.6-0.1-0.9-0.1c-0.3-0.1-0.5-0.2-0.6-0.3C16.1,27.2,16,27,16,26.7s0.1-0.5,0.3-0.7c0.2-0.2,0.4-0.3,0.6-0.4h1.5
			c1.2,0,2.2-0.4,3.1-1.1c0.9-0.8,1.3-1.7,1.3-2.8c0-0.4-0.1-0.9-0.2-1.3c-0.2-0.4-0.4-0.8-0.7-1.2v-0.1h2.9v-1.2h-4.4
			c-0.4-0.1-0.8-0.2-1.1-0.3c-0.4-0.1-0.8-0.1-1.1-0.1c-1.4,0-2.5,0.4-3.4,1.1c-0.9,0.8-1.3,1.7-1.3,2.9c0,0.8,0.2,1.5,0.7,2.1
			c0.4,0.6,1.1,1.1,1.9,1.5v0.2c-0.6,0.3-1.1,0.6-1.4,1c-0.3,0.4-0.5,0.8-0.5,1.2c0,0.4,0.1,0.7,0.2,0.9s0.3,0.4,0.5,0.6
			s0.4,0.3,0.7,0.4s0.5,0.2,0.8,0.3v0.2c-1,0-1.9,0.3-2.6,0.8c-0.7,0.5-1,1.2-1,2c0,1.1,0.5,1.9,1.4,2.4c0.9,0.6,2.3,0.8,4.2,0.8
			c1.2,0,2.1-0.1,2.9-0.3s1.5-0.5,2-0.9s0.9-0.8,1.2-1.4c0.3-0.5,0.4-1.1,0.4-1.7c0-0.6-0.1-1.1-0.3-1.5c-0.2-0.4-0.5-0.8-0.8-1.1
			C23.6,28.7,23.2,28.5,22.8,28.3z M19.9,23.8c-0.4,0.6-1,0.9-1.7,0.9c-0.6,0-1.2-0.3-1.6-0.9S16,22.4,16,21.5c0-0.4,0-0.8,0.1-1.2
			s0.2-0.7,0.4-1c0.2-0.3,0.4-0.5,0.7-0.7c0.3-0.2,0.6-0.2,1-0.2c0.7,0,1.3,0.3,1.7,0.9c0.4,0.6,0.6,1.4,0.6,2.4
			C20.5,22.5,20.3,23.2,19.9,23.8z M21.8,34.2c-0.7,0.5-1.7,0.7-2.9,0.7c-0.7,0-1.3-0.1-1.8-0.2c-0.5-0.1-0.9-0.3-1.2-0.5
			s-0.5-0.5-0.7-0.7c-0.1-0.3-0.2-0.6-0.2-0.8c0-0.7,0.2-1.2,0.6-1.6s1-0.7,1.9-0.9c1,0,1.8,0,2.6,0.1c0.7,0,1.2,0.1,1.5,0.1
			c0.4,0.1,0.8,0.3,1,0.6c0.2,0.3,0.3,0.7,0.3,1.2C22.9,33,22.6,33.8,21.8,34.2z"/>
		<linearGradient id="SVGID_2_" gradientUnits="userSpaceOnUse" x1="28.3095" y1="17.8018" x2="27.7262" y2="35.6351">
			<stop  offset="0" style="stop-color:#E16D35"/>
			<stop  offset="1" style="stop-color:#C93D1D"/>
		</linearGradient>
		<path fill="url(#SVGID_2_)" d="M27.7,21.6v2.5h1v-2.5h2.5v-0.9h-2.5v-2.5h-1v2.5h-2.5v0.9H27.7L27.7,21.6z"/>
	</g>
</g>
</svg>
