<?xml version="1.0" encoding="utf-8"?>
<!-- Generator: Adobe Illustrator 17.1.0, SVG Export Plug-In . SVG Version: 6.00 Build 0)  -->
<!DOCTYPE svg PUBLIC "-//W3C//DTD SVG 1.1//EN" "http://www.w3.org/Graphics/SVG/1.1/DTD/svg11.dtd">
<svg version="1.1" id="Layer_1" xmlns="http://www.w3.org/2000/svg" xmlns:xlink="http://www.w3.org/1999/xlink" x="0px" y="0px"
	 viewBox="0 0 37 51" enable-background="new 0 0 37 51" xml:space="preserve">
<g>
	<path fill="#FFFFFF" d="M25.5,51.1c-14.2,0-25.6-11.3-25.6-25.6S11.5,0,25.8,0H37v51L25.5,51.1z"/>
	<linearGradient id="SVGID_1_" gradientUnits="userSpaceOnUse" x1="21.35" y1="12.6667" x2="21.35" y2="38.5081">
		<stop  offset="0" style="stop-color:#4BD0EF"/>
		<stop  offset="1" style="stop-color:#29AAE1"/>
	</linearGradient>
	<path fill="url(#SVGID_1_)" d="M31.5,19.7c-0.7,0.3-1.6,0.6-2.4,0.7C30,19.8,30.7,19,31,18c-0.8,0.5-1.7,0.8-2.7,1
		c-0.8-0.8-1.8-1.3-3-1.3c-2.3,0-4.2,1.9-4.2,4.2c0,0.3,0,0.6,0.1,1c-3.5-0.2-6.6-1.8-8.6-4.4c-0.4,0.6-0.6,1.3-0.6,2.1
		c0,1.4,0.7,2.7,1.9,3.5c-0.7,0-1.3-0.2-1.9-0.5c0,0,0,0,0,0.1c0,2,1.4,3.7,3.4,4.1c-0.4,0.1-0.7,0.1-1.1,0.1c-0.3,0-0.5,0-0.8-0.1
		c0.5,1.7,2.1,2.9,3.9,2.9c-1.4,1.1-3.2,1.8-5.2,1.8c-0.3,0-0.7,0-1-0.1c1.8,1.2,4,1.9,6.4,1.9c7.7,0,11.9-6.4,11.9-11.9
		c0-0.2,0-0.4,0-0.5C30.3,21.3,31,20.5,31.5,19.7z"/>
</g>
</svg>
