<?xml version="1.0" encoding="utf-8"?>
<!-- Generator: Adobe Illustrator 17.1.0, SVG Export Plug-In . SVG Version: 6.00 Build 0)  -->
<!DOCTYPE svg PUBLIC "-//W3C//DTD SVG 1.1//EN" "http://www.w3.org/Graphics/SVG/1.1/DTD/svg11.dtd">
<svg version="1.1" id="Layer_1" xmlns="http://www.w3.org/2000/svg" xmlns:xlink="http://www.w3.org/1999/xlink" x="0px" y="0px"
	 viewBox="0 0 37 51" enable-background="new 0 0 37 51" xml:space="preserve">
<g>
	<path fill="#FFFFFF" d="M25.5,51.1c-14.2,0-25.6-11.3-25.6-25.6S11.5,0,25.8,0H37v51L25.5,51.1z"/>
	<linearGradient id="SVGID_1_" gradientUnits="userSpaceOnUse" x1="20.1486" y1="15.3333" x2="20.1486" y2="33.894">
		<stop  offset="0" style="stop-color:#5EA8E6"/>
		<stop  offset="1" style="stop-color:#334E9C"/>
	</linearGradient>
	<path fill="url(#SVGID_1_)" d="M29.5,31.6l-2.8,0.1c0,0-0.6,0.1-1.4-0.4c-1-0.7-2-2.5-2.8-2.3c-0.8,0.3-0.7,1.9-0.7,1.9
		s0,0.3-0.2,0.5c-0.1,0.2-0.5,0.2-0.5,0.2h-1.2c0,0-2.7,0.3-5.1-2.3c-2.6-2.9-5-8.3-5-8.3s-0.1-0.3,0-0.5c0.2-0.2,0.6-0.2,0.6-0.2h3
		c0,0,0.3,0.1,0.5,0.2s0.3,0.3,0.3,0.3s0.5,1.2,1.1,2.3c1.2,2.1,1.8,2.6,2.2,2.4c0.6-0.3,0.5-3,0.5-3s0-1-0.3-1.4
		c-0.3-0.3-0.7-0.5-0.9-0.5s0.1-0.4,0.5-0.6c0.5-0.3,1.5-0.3,2.6-0.3c0.8,0,1.1,0.1,1.4,0.1c1,0.3,0.6,1.2,0.6,3.5
		c0,0.7-0.1,1.8,0.4,2.1c0.2,0.1,0.8,0,2.1-2.3c0.6-1.1,1.2-2.4,1.2-2.4s0.1-0.3,0.3-0.3c0.2-0.1,0.4-0.1,0.4-0.1h3.1
		c0,0,0.9-0.1,1.1,0.3c0.1,0.5-0.3,1.5-1.6,3.2c-2.1,2.8-2.3,2.5-0.6,4.2c1.6,1.6,2,2.3,2.1,2.4C31,31.5,29.5,31.6,29.5,31.6z"/>
</g>
</svg>
