<?xml version="1.0" encoding="utf-8"?>
<!-- Generator: Adobe Illustrator 17.1.0, SVG Export Plug-In . SVG Version: 6.00 Build 0)  -->
<!DOCTYPE svg PUBLIC "-//W3C//DTD SVG 1.1//EN" "http://www.w3.org/Graphics/SVG/1.1/DTD/svg11.dtd">
<svg version="1.1" id="Layer_1" xmlns="http://www.w3.org/2000/svg" xmlns:xlink="http://www.w3.org/1999/xlink" x="0px" y="0px"
	 viewBox="0 0 60 60" enable-background="new 0 0 60 60" xml:space="preserve">
<path fill="#FFFFFF" d="M30,3.7c7.3,0,13.9,2.9,18.6,7.7v0c4.7,4.8,7.7,11.3,7.7,18.6c0,7.3-3,13.8-7.7,18.6l-0.1,0.1
	c-4.7,4.7-11.3,7.6-18.5,7.6c-7.2,0-13.8-2.9-18.6-7.7l0,0C6.6,43.8,3.7,37.3,3.7,30c0-7.3,2.9-13.8,7.7-18.6l0.1-0.1
	C16.3,6.6,22.8,3.7,30,3.7L30,3.7z M26.4,8L26.4,8c-0.1,0.4-0.1,0.9-0.2,1.3c-0.5,2.6-1,5.6-2.5,7.1c-0.6,0.6-4,3.1-4,3.7
	c0,0.2,0.8,0.2,3.6,0.2h0c1.5,0,3.4,0.5,4.9,1.4c1.2,0.7,2.3,1.5,3,2.6c0.8,1.2,1.1,2.5,0.8,4v0c-0.2,0.9-0.7,1.9-1.6,2.8
	c-2.9,3.3-2.9,3.6-2.7,5.3c0.1,0.7,0.2,1.6,0.2,2.9c0,0.7,0,1.4,0,2c0,1.5,0.1,2.8,0,3.8l0,0c-0.7,5.9-5.8,1.7-7.7-0.3
	c-1.9-2.2-3.8-5-4.4-6.4c-0.2-0.4-0.9-0.8-1.7-1.2c-1.9-0.9-4.1-2-4.2-5.4c-0.1-2.2,0.4-3.8,0.7-4.9c0.1-0.5,0.7-0.7,0.4-0.8
	c-0.4-0.1-1.1,0-1.9,0.2c-0.4,0.1-0.9,0.2-1.3,0.2c-0.2,1.1-0.3,2.3-0.3,3.4c0,6.1,2.5,11.7,6.5,15.7l0,0l0,0
	c2.4,2.4,5.2,4.2,8.5,5.3c1.9-0.4,3.9-1.2,5.7-1.6c4-0.7,8-1.5,12.5,0c1.8-1,3.4-2.2,4.8-3.6l0.1-0.1c1.1-1.1,2.1-2.3,3-3.7
	c-0.9,0.7-1.7,1.3-2.5,1.6c-1.1,0.5-2.1,0.6-2.8,0.2c-0.2-0.1-0.4-0.2-0.5-0.4l-0.1-0.1c-1.8-2.1-0.9-4.9,0.1-7.8
	c1-3.1,2-6.2-1.8-7.4c-0.6-0.2-1.2-0.4-1.8-0.7c-1.5-0.8-2.7-2-3.5-3.2c-1.9-3.1-0.6-4.8,1.4-7c0.3-0.4,0.6-0.7,0.9-1
	c-1.6,0.1-3.7,0.2-4.7-2.5v0l0,0c-0.1-0.4-0.2-0.8-0.3-1.2v-0.1c-0.3-2.2-1.5-3.2-3-4.8H30C28.8,7.7,27.6,7.8,26.4,8L26.4,8z
	 M8.5,24L8.5,24l0.2,0c1.1-0.2,2.1-0.5,3.2-0.1c2,0.7,1.7,1.7,1.1,3.7c-0.3,1-0.6,2.4-0.6,4.2c0.1,1.9,1.5,2.7,2.9,3.3
	c1.2,0.6,2.4,1.2,2.9,2.4c0.5,1.2,2.2,3.7,3.9,5.7c0.5,0.5,3.2,3.9,3.4,1.6c0.1-1.2,0.1-2.3,0-3.5c0-0.6,0-1.3,0-2.1
	c0-1.1-0.1-1.9-0.2-2.6c-0.3-2.5-0.4-3.1,3.3-7.2c0.6-0.6,0.9-1.3,1-1.8c0.2-0.7,0-1.4-0.4-2.1c-0.5-0.7-1.2-1.3-2.1-1.8
	c-1.2-0.7-2.7-1.1-3.8-1.1h0c-4.7,0-6,0-6.1-2.5c-0.1-2.3,3.2-4,4.7-5.5c0.9-0.9,1.4-3.5,1.8-5.8l0-0.3c-3.6,1-6.9,3-9.5,5.6
	l-0.1,0.1C11.6,16.9,9.6,20.3,8.5,24L8.5,24z M37.1,51.1L37.1,51.1c-2.8-0.3-5.5,0.2-8.3,0.7c-0.4,0.1-0.8,0.2-1.2,0.3
	c0.8,0.1,1.6,0.1,2.4,0.1C32.5,52.3,34.9,51.9,37.1,51.1L37.1,51.1z M51.5,34.7L51.5,34.7c0.1-0.2,0.2-0.3,0.4-0.4
	c0.3-1.4,0.4-2.8,0.4-4.3c0-6.1-2.5-11.7-6.5-15.7l0,0v0C42.5,11,38.3,8.8,33.6,8c1,1.2,1.8,2.5,1.9,4.2l0,0c0,0.3,0.1,0.5,0.1,0.7
	l0,0c0.4,1,1.5,0.9,2.3,0.9c1.3-0.1,2.4-0.1,2.8,1.3c0.4,1.4-0.6,2.5-1.7,3.7c-1.4,1.5-2.3,2.2-1.1,4.1c0.5,0.9,1.4,1.7,2.6,2.3
	c0.4,0.2,0.9,0.4,1.4,0.6c6.2,1.9,4.8,6.2,3.4,10.5c-0.7,2.2-1.4,4.3-0.6,5.4l0.6-0.2c0.6-0.3,1.4-0.8,2.2-1.6
	C48.8,38.7,50.3,37,51.5,34.7L51.5,34.7z M38.3,16.1L38.3,16.1c0.1-0.1,0.2-0.2,0.1-0.3C38.3,15.5,38.3,15.8,38.3,16.1L38.3,16.1z"
	/>
</svg>
