<?xml version="1.0" encoding="utf-8"?>
<!-- Generator: Adobe Illustrator 17.1.0, SVG Export Plug-In . SVG Version: 6.00 Build 0)  -->
<!DOCTYPE svg PUBLIC "-//W3C//DTD SVG 1.1//EN" "http://www.w3.org/Graphics/SVG/1.1/DTD/svg11.dtd">
<svg version="1.1" id="Layer_1" xmlns="http://www.w3.org/2000/svg" xmlns:xlink="http://www.w3.org/1999/xlink" x="0px" y="0px"
	 viewBox="309.5 0 661 661" enable-background="new 309.5 0 661 661" xml:space="preserve">
<g id="instagram_2_">
	<g>
		<polygon fill="#FFFFFF" points="765.7,258.5 765.7,210.5 765.7,202.5 760,202.5 709.7,202.5 709.7,258.5 		"/>
		<path fill="#FFFFFF" d="M640,388.8c33.1,0,58.3-26.3,58.3-58.3c0-12.6-4.6-25.1-10.3-33.1c-10.3-14.9-26.3-25.1-46.9-25.1
			s-36.6,10.3-46.9,25.1c-5.7,10.3-10.3,20.6-10.3,33.1C581.7,361.4,606.9,388.8,640,388.8z"/>
		<path fill="#FFFFFF" d="M640,0.2c-181.7,0-330.3,148.6-330.3,330.3S458.3,660.8,640,660.8s330.3-148.6,330.3-330.3
			S821.7,0.2,640,0.2z M804.6,295.1v133.7c0,35.4-28.6,64-64,64H539.4c-35.4,0-64-28.6-64-64V295.1v-66.3c0-35.4,28.6-64,64-64
			h202.3c35.4,0,64,28.6,64,64L804.6,295.1L804.6,295.1z"/>
		<path fill="#FFFFFF" d="M730.3,330.5c0,49.1-41.1,90.3-90.3,90.3s-90.3-41.1-90.3-90.3c0-12.6,2.3-22.9,5.7-33.1h-49.1v133.7
			c0,16,14.9,30.9,30.9,30.9h202.3c16,0,30.9-14.9,30.9-30.9V297.4H720C726.9,305.4,730.3,317.9,730.3,330.5z"/>
	</g>
</g>
</svg>
