<?xml version="1.0" encoding="utf-8"?>
<!-- Generator: Adobe Illustrator 17.1.0, SVG Export Plug-In . SVG Version: 6.00 Build 0)  -->
<!DOCTYPE svg PUBLIC "-//W3C//DTD SVG 1.1//EN" "http://www.w3.org/Graphics/SVG/1.1/DTD/svg11.dtd">
<svg version="1.1" id="Layer_1" xmlns="http://www.w3.org/2000/svg" xmlns:xlink="http://www.w3.org/1999/xlink" x="0px" y="0px"
	 viewBox="309.5 0 661 661" enable-background="new 309.5 0 661 661" xml:space="preserve">
<g id="pinterest">
	<path fill="#FFFFFF" d="M640,0.2c-181.7,0-330.3,148.6-330.3,330.3S458.3,660.8,640,660.8s330.3-148.6,330.3-330.3S824,0.2,640,0.2
		z M640,495.1c-16,0-30.9-2.3-46.9-5.7c5.7-10.3,12.6-22.9,16-35.4c2.3-8,12.6-45.7,12.6-45.7c5.7,10.3,22.9,20.6,41.1,20.6
		c53.7,0,89.1-46.9,89.1-113.1c0-49.1-41.1-94.9-105.1-94.9c-78.9,0-117.7,56-117.7,102.9c0,28.6,10.3,53.7,33.1,64
		c4.6,2.3,5.7,0,8-4.6c0-2.3,2.3-10.3,4.6-12.6c2.3-4.6,0-5.7-2.3-8c-5.7-8-10.3-18.3-10.3-33.1c0-41.1,30.9-78.9,80-78.9
		c43.4,0,68.6,26.3,68.6,64c0,46.9-20.6,89.1-51.4,89.1c-16,0-30.9-14.9-26.3-30.9c4.6-20.6,14.9-43.4,14.9-58.3
		c0-14.9-8-25.1-22.9-25.1c-18.3,0-30.9,18.3-30.9,43.4c0,16,5.7,26.3,5.7,26.3s-18.3,76.6-20.6,90.3c-2.3,12.6-4.6,26.3-2.3,36.6
		c-58.3-25.1-99.4-84.6-99.4-150.9c0-90.3,74.3-164.6,164.6-164.6s164.6,74.3,164.6,164.6C804.6,420.8,732.6,495.1,640,495.1z"/>
</g>
</svg>
